<svg width="103" height="100" viewBox="0 0 103 100" fill="none" xmlns="http://www.w3.org/2000/svg">
<rect width="100" height="100" rx="5" fill="#6846F2"/>
<line x1="1.00956" y1="3.89059" x2="101.01" y2="94.8906" stroke="black" stroke-width="3"/>
<path d="M25 5C30.8318 18.4964 35.5687 31.9059 35.7354 46.7489C35.7667 49.532 35.7354 57.8819 35.7354 55.0987C35.7354 50.2735 36.2423 45.4827 36.9945 40.7185C37.5936 36.9243 50.6016 10.9476 53.6278 13.2172C55.7098 14.7787 56.2202 20.8737 56.5436 23.0912C58.0487 33.4116 55.6785 44.0174 53.0977 53.9721C52.7815 55.1914 48.3381 74.9983 50.1156 67.8884C53.1489 55.7552 56.9313 42.9636 61.9776 31.5072C63.9441 27.0426 66.3869 22.5081 69.7309 18.9163C76.9035 11.2124 75.1086 26.8787 74.9661 30.5132C74.1021 52.5468 67.7915 73.9425 64.3632 95.6547" stroke="white" stroke-width="3" stroke-linecap="round"/>
</svg>
